<mxfile host="app.diagrams.net" agent="Mozilla/5.0 (X11; Linux x86_64; rv:109.0) Gecko/20100101 Firefox/115.0" version="24.7.16">
  <diagram name="Page-1" id="CUT6bJymwWr5IvbvF8DB">
    <mxGraphModel dx="1007" dy="523" grid="1" gridSize="10" guides="1" tooltips="1" connect="1" arrows="1" fold="1" page="1" pageScale="1" pageWidth="827" pageHeight="1169" math="0" shadow="0">
      <root>
        <mxCell id="0" />
        <mxCell id="1" parent="0" />
        <mxCell id="-UpK1C25vsjdMaOMGYt--1" value="Alt" style="shape=umlFrame;whiteSpace=wrap;html=1;pointerEvents=0;fillColor=#ffcc99;strokeColor=#36393d;" parent="1" vertex="1">
          <mxGeometry x="240" y="440" width="930" height="190" as="geometry" />
        </mxCell>
        <mxCell id="-UpK1C25vsjdMaOMGYt--2" value="" style="shape=umlLifeline;perimeter=lifelinePerimeter;whiteSpace=wrap;html=1;container=1;dropTarget=0;collapsible=0;recursiveResize=0;outlineConnect=0;portConstraint=eastwest;newEdgeStyle={&quot;curved&quot;:0,&quot;rounded&quot;:0};participant=umlActor;size=60;" parent="1" vertex="1">
          <mxGeometry x="360" y="80" width="20" height="610" as="geometry" />
        </mxCell>
        <mxCell id="-UpK1C25vsjdMaOMGYt--29" value="" style="html=1;points=[[0,0,0,0,5],[0,1,0,0,-5],[1,0,0,0,5],[1,1,0,0,-5]];perimeter=orthogonalPerimeter;outlineConnect=0;targetShapes=umlLifeline;portConstraint=eastwest;newEdgeStyle={&quot;curved&quot;:0,&quot;rounded&quot;:0};fillColor=#cce5ff;strokeColor=#36393d;" parent="-UpK1C25vsjdMaOMGYt--2" vertex="1">
          <mxGeometry x="5" y="330" width="10" height="200" as="geometry" />
        </mxCell>
        <mxCell id="-UpK1C25vsjdMaOMGYt--3" value="User Interface" style="shape=umlLifeline;perimeter=lifelinePerimeter;whiteSpace=wrap;html=1;container=1;dropTarget=0;collapsible=0;recursiveResize=0;outlineConnect=0;portConstraint=eastwest;newEdgeStyle={&quot;curved&quot;:0,&quot;rounded&quot;:0};fillColor=#cce5ff;strokeColor=#36393d;" parent="1" vertex="1">
          <mxGeometry x="500" y="110" width="100" height="580" as="geometry" />
        </mxCell>
        <mxCell id="-UpK1C25vsjdMaOMGYt--6" value="" style="html=1;points=[[0,0,0,0,5],[0,1,0,0,-5],[1,0,0,0,5],[1,1,0,0,-5]];perimeter=orthogonalPerimeter;outlineConnect=0;targetShapes=umlLifeline;portConstraint=eastwest;newEdgeStyle={&quot;curved&quot;:0,&quot;rounded&quot;:0};" parent="-UpK1C25vsjdMaOMGYt--3" vertex="1">
          <mxGeometry x="45" y="360" width="10" height="40" as="geometry" />
        </mxCell>
        <mxCell id="-UpK1C25vsjdMaOMGYt--30" value="" style="html=1;points=[[0,0,0,0,5],[0,1,0,0,-5],[1,0,0,0,5],[1,1,0,0,-5]];perimeter=orthogonalPerimeter;outlineConnect=0;targetShapes=umlLifeline;portConstraint=eastwest;newEdgeStyle={&quot;curved&quot;:0,&quot;rounded&quot;:0};fillColor=#cce5ff;strokeColor=#36393d;" parent="-UpK1C25vsjdMaOMGYt--3" vertex="1">
          <mxGeometry x="45" y="295" width="10" height="195" as="geometry" />
        </mxCell>
        <mxCell id="-UpK1C25vsjdMaOMGYt--25" value="" style="html=1;points=[[0,0,0,0,5],[0,1,0,0,-5],[1,0,0,0,5],[1,1,0,0,-5]];perimeter=orthogonalPerimeter;outlineConnect=0;targetShapes=umlLifeline;portConstraint=eastwest;newEdgeStyle={&quot;curved&quot;:0,&quot;rounded&quot;:0};fillColor=#cce5ff;strokeColor=#36393d;" parent="-UpK1C25vsjdMaOMGYt--3" vertex="1">
          <mxGeometry x="45" y="200" width="10" height="40" as="geometry" />
        </mxCell>
        <mxCell id="-UpK1C25vsjdMaOMGYt--9" value="API-Gateway" style="shape=umlLifeline;perimeter=lifelinePerimeter;whiteSpace=wrap;html=1;container=1;dropTarget=0;collapsible=0;recursiveResize=0;outlineConnect=0;portConstraint=eastwest;newEdgeStyle={&quot;curved&quot;:0,&quot;rounded&quot;:0};fillColor=#cce5ff;strokeColor=#36393d;" parent="1" vertex="1">
          <mxGeometry x="640" y="110" width="100" height="570" as="geometry" />
        </mxCell>
        <mxCell id="-UpK1C25vsjdMaOMGYt--32" value="" style="html=1;points=[[0,0,0,0,5],[0,1,0,0,-5],[1,0,0,0,5],[1,1,0,0,-5]];perimeter=orthogonalPerimeter;outlineConnect=0;targetShapes=umlLifeline;portConstraint=eastwest;newEdgeStyle={&quot;curved&quot;:0,&quot;rounded&quot;:0};fillColor=#cce5ff;strokeColor=#36393d;" parent="-UpK1C25vsjdMaOMGYt--9" vertex="1">
          <mxGeometry x="45" y="295" width="10" height="185" as="geometry" />
        </mxCell>
        <mxCell id="-UpK1C25vsjdMaOMGYt--16" value="Store Controller" style="shape=umlLifeline;perimeter=lifelinePerimeter;whiteSpace=wrap;html=1;container=1;dropTarget=0;collapsible=0;recursiveResize=0;outlineConnect=0;portConstraint=eastwest;newEdgeStyle={&quot;curved&quot;:0,&quot;rounded&quot;:0};fillColor=#ffff88;strokeColor=#36393d;" parent="1" vertex="1">
          <mxGeometry x="780" y="110" width="100" height="570" as="geometry" />
        </mxCell>
        <mxCell id="-UpK1C25vsjdMaOMGYt--19" value="Store Service" style="shape=umlLifeline;perimeter=lifelinePerimeter;whiteSpace=wrap;html=1;container=1;dropTarget=0;collapsible=0;recursiveResize=0;outlineConnect=0;portConstraint=eastwest;newEdgeStyle={&quot;curved&quot;:0,&quot;rounded&quot;:0};fillColor=#ffff88;strokeColor=#36393d;" parent="1" vertex="1">
          <mxGeometry x="910" y="110" width="100" height="570" as="geometry" />
        </mxCell>
        <mxCell id="-UpK1C25vsjdMaOMGYt--20" value="Store Database" style="shape=umlLifeline;perimeter=lifelinePerimeter;whiteSpace=wrap;html=1;container=1;dropTarget=0;collapsible=0;recursiveResize=0;outlineConnect=0;portConstraint=eastwest;newEdgeStyle={&quot;curved&quot;:0,&quot;rounded&quot;:0};fillColor=#ffff88;strokeColor=#36393d;" parent="1" vertex="1">
          <mxGeometry x="1050" y="110" width="100" height="570" as="geometry" />
        </mxCell>
        <mxCell id="-UpK1C25vsjdMaOMGYt--21" value="Réf" style="shape=umlFrame;whiteSpace=wrap;html=1;pointerEvents=0;fillColor=#ffcc99;strokeColor=#36393d;" parent="1" vertex="1">
          <mxGeometry x="310" y="170" width="500" height="100" as="geometry" />
        </mxCell>
        <mxCell id="-UpK1C25vsjdMaOMGYt--22" value="&lt;b&gt;&lt;font style=&quot;font-size: 13px;&quot;&gt;S&#39;authentifier&lt;/font&gt;&lt;/b&gt;" style="text;html=1;align=center;verticalAlign=middle;resizable=0;points=[];autosize=1;strokeColor=none;fillColor=none;" parent="1" vertex="1">
          <mxGeometry x="540" y="205" width="110" height="30" as="geometry" />
        </mxCell>
        <mxCell id="-UpK1C25vsjdMaOMGYt--26" value="&lt;font style=&quot;font-size: 10px;&quot;&gt;1: demander l&#39;ajout boutique&lt;/font&gt;" style="html=1;verticalAlign=bottom;endArrow=block;curved=0;rounded=0;" parent="1" edge="1">
          <mxGeometry width="80" relative="1" as="geometry">
            <mxPoint x="375.31034482758605" y="310" as="sourcePoint" />
            <mxPoint x="550" y="310" as="targetPoint" />
          </mxGeometry>
        </mxCell>
        <mxCell id="-UpK1C25vsjdMaOMGYt--27" value="&lt;font style=&quot;font-size: 10px;&quot;&gt;2: afficher formulaire boutique&lt;/font&gt;" style="html=1;verticalAlign=bottom;endArrow=block;curved=0;rounded=0;entryX=1;entryY=1;entryDx=0;entryDy=-5;entryPerimeter=0;" parent="1" edge="1">
          <mxGeometry width="80" relative="1" as="geometry">
            <mxPoint x="550" y="349.76" as="sourcePoint" />
            <mxPoint x="375.5" y="349.76" as="targetPoint" />
          </mxGeometry>
        </mxCell>
        <mxCell id="-UpK1C25vsjdMaOMGYt--28" value="&lt;font style=&quot;font-size: 10px;&quot;&gt;3: remplir données boutique&lt;/font&gt;" style="html=1;verticalAlign=bottom;endArrow=block;curved=0;rounded=0;entryX=0;entryY=0;entryDx=0;entryDy=5;entryPerimeter=0;" parent="1" source="-UpK1C25vsjdMaOMGYt--29" target="-UpK1C25vsjdMaOMGYt--30" edge="1">
          <mxGeometry width="80" relative="1" as="geometry">
            <mxPoint x="380" y="410" as="sourcePoint" />
            <mxPoint x="540" y="410" as="targetPoint" />
          </mxGeometry>
        </mxCell>
        <mxCell id="-UpK1C25vsjdMaOMGYt--31" value="&lt;font style=&quot;font-size: 10px;&quot;&gt;4: addStore&lt;/font&gt;" style="html=1;verticalAlign=bottom;endArrow=block;curved=0;rounded=0;entryX=0;entryY=0;entryDx=0;entryDy=5;entryPerimeter=0;" parent="1" target="-UpK1C25vsjdMaOMGYt--32" edge="1">
          <mxGeometry width="80" relative="1" as="geometry">
            <mxPoint x="560" y="410" as="sourcePoint" />
            <mxPoint x="680" y="410" as="targetPoint" />
          </mxGeometry>
        </mxCell>
        <mxCell id="-UpK1C25vsjdMaOMGYt--33" value="" style="html=1;points=[[0,0,0,0,5],[0,1,0,0,-5],[1,0,0,0,5],[1,1,0,0,-5]];perimeter=orthogonalPerimeter;outlineConnect=0;targetShapes=umlLifeline;portConstraint=eastwest;newEdgeStyle={&quot;curved&quot;:0,&quot;rounded&quot;:0};fillColor=#cce5ff;strokeColor=#36393d;" parent="1" vertex="1">
          <mxGeometry x="825" y="410" width="10" height="170" as="geometry" />
        </mxCell>
        <mxCell id="-UpK1C25vsjdMaOMGYt--34" value="" style="html=1;points=[[0,0,0,0,5],[0,1,0,0,-5],[1,0,0,0,5],[1,1,0,0,-5]];perimeter=orthogonalPerimeter;outlineConnect=0;targetShapes=umlLifeline;portConstraint=eastwest;newEdgeStyle={&quot;curved&quot;:0,&quot;rounded&quot;:0};fillColor=#cce5ff;strokeColor=#36393d;" parent="1" vertex="1">
          <mxGeometry x="955" y="410" width="10" height="170" as="geometry" />
        </mxCell>
        <mxCell id="-UpK1C25vsjdMaOMGYt--35" value="&lt;font style=&quot;font-size: 10px;&quot;&gt;5: dispatcher vers addStore&lt;/font&gt;" style="html=1;verticalAlign=bottom;endArrow=block;curved=0;rounded=0;" parent="1" edge="1">
          <mxGeometry width="80" relative="1" as="geometry">
            <mxPoint x="697" y="410" as="sourcePoint" />
            <mxPoint x="827" y="410" as="targetPoint" />
          </mxGeometry>
        </mxCell>
        <mxCell id="-UpK1C25vsjdMaOMGYt--36" value="&lt;font style=&quot;font-size: 10px;&quot;&gt;6: addStore()&lt;/font&gt;" style="html=1;verticalAlign=bottom;endArrow=block;curved=0;rounded=0;" parent="1" source="-UpK1C25vsjdMaOMGYt--33" target="-UpK1C25vsjdMaOMGYt--34" edge="1">
          <mxGeometry x="-0.0833" y="10" width="80" relative="1" as="geometry">
            <mxPoint x="840" y="420" as="sourcePoint" />
            <mxPoint x="910" y="420" as="targetPoint" />
            <Array as="points">
              <mxPoint x="880" y="420" />
            </Array>
            <mxPoint as="offset" />
          </mxGeometry>
        </mxCell>
        <mxCell id="-UpK1C25vsjdMaOMGYt--37" value="" style="html=1;points=[[0,0,0,0,5],[0,1,0,0,-5],[1,0,0,0,5],[1,1,0,0,-5]];perimeter=orthogonalPerimeter;outlineConnect=0;targetShapes=umlLifeline;portConstraint=eastwest;newEdgeStyle={&quot;curved&quot;:0,&quot;rounded&quot;:0};fillColor=#cce5ff;strokeColor=#36393d;" parent="1" vertex="1">
          <mxGeometry x="1095" y="470" width="10" height="30" as="geometry" />
        </mxCell>
        <mxCell id="-UpK1C25vsjdMaOMGYt--38" value="&lt;font style=&quot;font-size: 10px;&quot;&gt;Check data&lt;/font&gt;" style="html=1;align=left;spacingLeft=2;endArrow=block;rounded=0;edgeStyle=orthogonalEdgeStyle;curved=0;rounded=0;" parent="1" edge="1">
          <mxGeometry x="-0.005" relative="1" as="geometry">
            <mxPoint x="965" y="420" as="sourcePoint" />
            <Array as="points">
              <mxPoint x="995" y="450" />
            </Array>
            <mxPoint x="970" y="450" as="targetPoint" />
            <mxPoint as="offset" />
          </mxGeometry>
        </mxCell>
        <mxCell id="-UpK1C25vsjdMaOMGYt--39" value="" style="html=1;points=[[0,0,0,0,5],[0,1,0,0,-5],[1,0,0,0,5],[1,1,0,0,-5]];perimeter=orthogonalPerimeter;outlineConnect=0;targetShapes=umlLifeline;portConstraint=eastwest;newEdgeStyle={&quot;curved&quot;:0,&quot;rounded&quot;:0};fillColor=#cce5ff;strokeColor=#36393d;" parent="1" vertex="1">
          <mxGeometry x="965" y="440" width="5" height="20" as="geometry" />
        </mxCell>
        <mxCell id="-UpK1C25vsjdMaOMGYt--40" value="&lt;font style=&quot;font-size: 10px;&quot;&gt;7. save&lt;/font&gt;" style="html=1;verticalAlign=bottom;endArrow=block;rounded=0;" parent="1" target="-UpK1C25vsjdMaOMGYt--37" edge="1">
          <mxGeometry x="0.1538" width="80" relative="1" as="geometry">
            <mxPoint x="965" y="470" as="sourcePoint" />
            <mxPoint x="1090" y="470" as="targetPoint" />
            <mxPoint as="offset" />
          </mxGeometry>
        </mxCell>
        <mxCell id="-UpK1C25vsjdMaOMGYt--42" value="&lt;font style=&quot;font-size: 10px;&quot;&gt;8: return storeSaved&lt;/font&gt;" style="html=1;verticalAlign=bottom;endArrow=block;rounded=0;dashed=1;" parent="1" source="-UpK1C25vsjdMaOMGYt--37" target="-UpK1C25vsjdMaOMGYt--34" edge="1">
          <mxGeometry y="-5" width="80" relative="1" as="geometry">
            <mxPoint x="1035" y="530" as="sourcePoint" />
            <mxPoint x="990" y="600" as="targetPoint" />
            <Array as="points">
              <mxPoint x="1060" y="500" />
            </Array>
            <mxPoint as="offset" />
          </mxGeometry>
        </mxCell>
        <mxCell id="-UpK1C25vsjdMaOMGYt--43" value="&lt;font style=&quot;font-size: 10px;&quot;&gt;9: return store&lt;/font&gt;" style="html=1;verticalAlign=bottom;endArrow=block;rounded=0;dashed=1;" parent="1" target="-UpK1C25vsjdMaOMGYt--33" edge="1">
          <mxGeometry y="-10" width="80" relative="1" as="geometry">
            <mxPoint x="955" y="500" as="sourcePoint" />
            <mxPoint x="850" y="500" as="targetPoint" />
            <mxPoint as="offset" />
          </mxGeometry>
        </mxCell>
        <mxCell id="-UpK1C25vsjdMaOMGYt--44" value="&lt;font style=&quot;font-size: 10px;&quot;&gt;10: return storeSavedResponse&lt;/font&gt;" style="html=1;verticalAlign=bottom;endArrow=block;rounded=0;dashed=1;" parent="1" edge="1">
          <mxGeometry y="-10" width="80" relative="1" as="geometry">
            <mxPoint x="825" y="510" as="sourcePoint" />
            <mxPoint x="695" y="510" as="targetPoint" />
            <mxPoint as="offset" />
          </mxGeometry>
        </mxCell>
        <mxCell id="-UpK1C25vsjdMaOMGYt--45" value="&lt;font style=&quot;font-size: 10px;&quot;&gt;11: return storeSavedResponse&lt;/font&gt;" style="html=1;verticalAlign=bottom;endArrow=block;rounded=0;entryX=0.705;entryY=0.667;entryDx=0;entryDy=0;entryPerimeter=0;dashed=1;" parent="1" edge="1">
          <mxGeometry x="-0.0769" y="-20" width="80" relative="1" as="geometry">
            <mxPoint x="685" y="519.995" as="sourcePoint" />
            <mxPoint x="552.05" y="519.995" as="targetPoint" />
            <mxPoint as="offset" />
          </mxGeometry>
        </mxCell>
        <mxCell id="-UpK1C25vsjdMaOMGYt--47" value="12: afficher le nouveau boutique" style="html=1;verticalAlign=bottom;endArrow=block;rounded=0;dashed=1;" parent="1" target="-UpK1C25vsjdMaOMGYt--29" edge="1">
          <mxGeometry y="-10" width="80" relative="1" as="geometry">
            <mxPoint x="544" y="530" as="sourcePoint" />
            <mxPoint x="414" y="530" as="targetPoint" />
            <mxPoint as="offset" />
          </mxGeometry>
        </mxCell>
        <mxCell id="-UpK1C25vsjdMaOMGYt--49" value="Données valides" style="text;html=1;align=center;verticalAlign=middle;resizable=0;points=[];autosize=1;strokeColor=none;fillColor=none;" parent="1" vertex="1">
          <mxGeometry x="245" y="480" width="110" height="30" as="geometry" />
        </mxCell>
        <mxCell id="-UpK1C25vsjdMaOMGYt--50" value="Données invalides" style="text;html=1;align=center;verticalAlign=middle;resizable=0;points=[];autosize=1;strokeColor=none;fillColor=none;" parent="1" vertex="1">
          <mxGeometry x="240" y="570" width="120" height="30" as="geometry" />
        </mxCell>
        <mxCell id="-UpK1C25vsjdMaOMGYt--52" value="&lt;font style=&quot;font-size: 10px;&quot;&gt;9: return exception&lt;/font&gt;" style="html=1;verticalAlign=bottom;endArrow=block;rounded=0;dashed=1;" parent="1" edge="1">
          <mxGeometry y="-10" width="80" relative="1" as="geometry">
            <mxPoint x="955" y="570" as="sourcePoint" />
            <mxPoint x="835" y="570" as="targetPoint" />
            <mxPoint as="offset" />
          </mxGeometry>
        </mxCell>
        <mxCell id="-UpK1C25vsjdMaOMGYt--53" value="&lt;font style=&quot;font-size: 10px;&quot;&gt;10: return &lt;/font&gt;&lt;font style=&quot;font-size: 10px;&quot;&gt;exception&lt;/font&gt;" style="html=1;verticalAlign=bottom;endArrow=block;rounded=0;dashed=1;" parent="1" edge="1">
          <mxGeometry y="-10" width="80" relative="1" as="geometry">
            <mxPoint x="825" y="580" as="sourcePoint" />
            <mxPoint x="695" y="580" as="targetPoint" />
            <mxPoint as="offset" />
          </mxGeometry>
        </mxCell>
        <mxCell id="-UpK1C25vsjdMaOMGYt--54" value="&lt;font style=&quot;font-size: 10px;&quot;&gt;11: return &lt;/font&gt;&lt;font style=&quot;font-size: 10px;&quot;&gt;exception&lt;/font&gt;" style="html=1;verticalAlign=bottom;endArrow=block;rounded=0;dashed=1;" parent="1" edge="1">
          <mxGeometry y="-10" width="80" relative="1" as="geometry">
            <mxPoint x="680" y="584" as="sourcePoint" />
            <mxPoint x="550" y="584" as="targetPoint" />
            <mxPoint as="offset" />
          </mxGeometry>
        </mxCell>
        <mxCell id="-UpK1C25vsjdMaOMGYt--55" value="&lt;font style=&quot;font-size: 10px;&quot;&gt;12: &lt;/font&gt;&lt;font style=&quot;font-size: 10px;&quot;&gt;return &lt;/font&gt;&lt;font style=&quot;font-size: 10px;&quot;&gt;exception&lt;/font&gt;" style="html=1;verticalAlign=bottom;endArrow=block;rounded=0;dashed=1;" parent="1" target="-UpK1C25vsjdMaOMGYt--29" edge="1">
          <mxGeometry x="0.0039" y="-10" width="80" relative="1" as="geometry">
            <mxPoint x="544" y="594" as="sourcePoint" />
            <mxPoint x="380" y="594" as="targetPoint" />
            <mxPoint as="offset" />
          </mxGeometry>
        </mxCell>
        <mxCell id="-UpK1C25vsjdMaOMGYt--56" value="" style="line;strokeWidth=1;fillColor=none;align=left;verticalAlign=middle;spacingTop=-1;spacingLeft=3;spacingRight=3;rotatable=0;labelPosition=right;points=[];portConstraint=eastwest;strokeColor=inherit;dashed=1;" parent="1" vertex="1">
          <mxGeometry x="240" y="540" width="930" height="8" as="geometry" />
        </mxCell>
        <mxCell id="-UpK1C25vsjdMaOMGYt--57" value="Diagramme de Séquence : Ajouter une Boutique" style="shape=umlFrame;whiteSpace=wrap;html=1;pointerEvents=0;width=280;height=30;fillColor=#f9f7ed;strokeColor=#36393d;" parent="1" vertex="1">
          <mxGeometry x="210" y="40" width="980" height="640" as="geometry" />
        </mxCell>
        <mxCell id="WP6GgHHAuhvXwPAojKjH-1" value="BusinessOwner" style="text;html=1;align=center;verticalAlign=middle;resizable=0;points=[];autosize=1;strokeColor=none;fillColor=none;" parent="1" vertex="1">
          <mxGeometry x="315" y="130" width="110" height="30" as="geometry" />
        </mxCell>
      </root>
    </mxGraphModel>
  </diagram>
</mxfile>
